<svg width="22" height="22" viewBox="0 0 22 22" fill="none" xmlns="http://www.w3.org/2000/svg">
<path d="M8.25004 1.83325H3.66671C2.65419 1.83325 1.83337 2.65406 1.83337 3.66659V10.0833C1.83337 11.0958 2.65419 11.9166 3.66671 11.9166H8.25004C9.26256 11.9166 10.0834 11.0958 10.0834 10.0833V3.66659C10.0834 2.65406 9.26256 1.83325 8.25004 1.83325Z" fill="#0077B6"/>
<path d="M18.3333 1.83325H13.75C12.7374 1.83325 11.9166 2.65406 11.9166 3.66659V6.41658C11.9166 7.42911 12.7374 8.24992 13.75 8.24992H18.3333C19.3458 8.24992 20.1666 7.42911 20.1666 6.41658V3.66659C20.1666 2.65406 19.3458 1.83325 18.3333 1.83325Z" fill="#0077B6"/>
<path d="M8.25004 13.75H3.66671C2.65419 13.75 1.83337 14.5708 1.83337 15.5833V18.3333C1.83337 19.3459 2.65419 20.1667 3.66671 20.1667H8.25004C9.26256 20.1667 10.0834 19.3459 10.0834 18.3333V15.5833C10.0834 14.5708 9.26256 13.75 8.25004 13.75Z" fill="#0077B6"/>
<path d="M18.3333 10.0833H13.75C12.7374 10.0833 11.9166 10.9041 11.9166 11.9166V18.3333C11.9166 19.3458 12.7374 20.1666 13.75 20.1666H18.3333C19.3458 20.1666 20.1666 19.3458 20.1666 18.3333V11.9166C20.1666 10.9041 19.3458 10.0833 18.3333 10.0833Z" fill="#0077B6"/>
</svg>
