<svg width="20" height="20" viewBox="0 0 20 20" fill="none" xmlns="http://www.w3.org/2000/svg">
<path d="M18.25 14.5833H17.3334V8.16659C17.3334 6.22166 16.5608 4.3564 15.1855 2.98114C13.8102 1.60587 11.945 0.833252 10 0.833252C8.05512 0.833252 6.18986 1.60587 4.81459 2.98114C3.43932 4.3564 2.66671 6.22166 2.66671 8.16659V14.5833H1.75004C1.50693 14.5833 1.27377 14.6798 1.10186 14.8517C0.929951 15.0236 0.833374 15.2568 0.833374 15.4999C0.833374 15.743 0.929951 15.9762 1.10186 16.1481C1.27377 16.32 1.50693 16.4166 1.75004 16.4166H6.45254C6.65762 17.2013 7.11707 17.8958 7.75898 18.3915C8.40088 18.8872 9.18902 19.1561 10 19.1561C10.8111 19.1561 11.5992 18.8872 12.2411 18.3915C12.883 17.8958 13.3425 17.2013 13.5475 16.4166H18.25C18.4932 16.4166 18.7263 16.32 18.8982 16.1481C19.0701 15.9762 19.1667 15.743 19.1667 15.4999C19.1667 15.2568 19.0701 15.0236 18.8982 14.8517C18.7263 14.6798 18.4932 14.5833 18.25 14.5833ZM10 17.3333C9.67854 17.3329 9.36278 17.2481 9.08444 17.0872C8.8061 16.9263 8.57496 16.695 8.41421 16.4166H11.5859C11.4251 16.695 11.194 16.9263 10.9156 17.0872C10.6373 17.2481 10.3215 17.3329 10 17.3333Z" fill="#CCCCCC"/>
</svg>
