<svg width="22" height="22" viewBox="0 0 22 22" fill="none" xmlns="http://www.w3.org/2000/svg">
<path d="M9.16671 16.4999C13.2168 16.4999 16.5 13.2167 16.5 9.16658C16.5 5.1165 13.2168 1.83325 9.16671 1.83325C5.11662 1.83325 1.83337 5.1165 1.83337 9.16658C1.83337 13.2167 5.11662 16.4999 9.16671 16.4999Z" fill="#CCCCCC"/>
<path d="M19.9009 19.9007C19.8157 19.9867 19.7143 20.0549 19.6026 20.1014C19.4909 20.1479 19.3711 20.1719 19.25 20.1719C19.129 20.1719 19.0092 20.1479 18.8975 20.1014C18.7858 20.0549 18.6844 19.9867 18.5992 19.9007L14.3092 15.5832C14.7809 15.2082 15.2083 14.7807 15.5834 14.3091L19.8734 18.5991C19.9611 18.6825 20.0315 18.7824 20.0804 18.8931C20.1293 19.0039 20.1558 19.1232 20.1584 19.2442C20.1609 19.3652 20.1395 19.4855 20.0953 19.5982C20.0511 19.7109 19.985 19.8137 19.9009 19.9007Z" fill="#CCCCCC"/>
</svg>
