<svg width="22" height="22" viewBox="0 0 22 22" fill="none" xmlns="http://www.w3.org/2000/svg">
<path d="M18.3334 1.83325H3.66671C3.18048 1.83325 2.71416 2.02641 2.37034 2.37022C2.02653 2.71404 1.83337 3.18036 1.83337 3.66659V18.3333C1.83337 18.8195 2.02653 19.2858 2.37034 19.6296C2.71416 19.9734 3.18048 20.1666 3.66671 20.1666H18.3334C18.8196 20.1666 19.2859 19.9734 19.6297 19.6296C19.9736 19.2858 20.1667 18.8195 20.1667 18.3333V3.66659C20.1667 3.18036 19.9736 2.71404 19.6297 2.37022C19.2859 2.02641 18.8196 1.83325 18.3334 1.83325ZM8.25004 15.5833C8.25004 15.8264 8.15346 16.0595 7.98155 16.2314C7.80965 16.4033 7.57649 16.4999 7.33337 16.4999C7.09026 16.4999 6.8571 16.4033 6.68519 16.2314C6.51328 16.0595 6.41671 15.8264 6.41671 15.5833V13.7499C6.41671 13.5068 6.51328 13.2736 6.68519 13.1017C6.8571 12.9298 7.09026 12.8333 7.33337 12.8333C7.57649 12.8333 7.80965 12.9298 7.98155 13.1017C8.15346 13.2736 8.25004 13.5068 8.25004 13.7499V15.5833ZM11.9167 15.5833C11.9167 15.8264 11.8201 16.0595 11.6482 16.2314C11.4763 16.4033 11.2432 16.4999 11 16.4999C10.7569 16.4999 10.5238 16.4033 10.3519 16.2314C10.18 16.0595 10.0834 15.8264 10.0834 15.5833V10.0833C10.0834 9.84014 10.18 9.60698 10.3519 9.43507C10.5238 9.26316 10.7569 9.16659 11 9.16659C11.2432 9.16659 11.4763 9.26316 11.6482 9.43507C11.8201 9.60698 11.9167 9.84014 11.9167 10.0833V15.5833ZM15.5834 15.5833C15.5834 15.8264 15.4868 16.0595 15.3149 16.2314C15.143 16.4033 14.9098 16.4999 14.6667 16.4999C14.4236 16.4999 14.1904 16.4033 14.0185 16.2314C13.8466 16.0595 13.75 15.8264 13.75 15.5833V6.41659C13.75 6.17347 13.8466 5.94031 14.0185 5.7684C14.1904 5.5965 14.4236 5.49992 14.6667 5.49992C14.9098 5.49992 15.143 5.5965 15.3149 5.7684C15.4868 5.94031 15.5834 6.17347 15.5834 6.41659V15.5833Z" fill="#CCCCCC"/>
</svg>
